<svg width="144" height="144" viewBox="0 0 144 144" fill="none" xmlns="http://www.w3.org/2000/svg">
<circle cx="72" cy="72" r="72" fill="#FF9900"/>
<g clip-path="url(#clip0_610_3689)">
<path fill-rule="evenodd" clip-rule="evenodd" d="M71.26 102.776L56.99 97.6559V76.7459L71.26 81.6059V102.776ZM73.86 102.776L88.13 97.6559V76.7459L73.86 81.6099V102.776ZM58.46 75.1759L72.86 71.1099L86.252 75.4299L72.86 79.9759L58.46 75.1759ZM54.276 73.5759L40 68.4399V47.4999L54.27 52.3599L54.276 73.5759ZM56.89 73.5759L71.16 68.4559V47.4999L56.886 52.3839L56.89 73.5759ZM41.49 45.9759L55.89 41.8899L69.282 46.2099L55.89 50.7559L41.49 45.9759ZM87.594 73.5759L73.324 68.4559V47.4999L87.594 52.3599V73.5759ZM90.194 73.5759L104.464 68.4559V47.4999L90.194 52.3599V73.5759ZM74.794 45.9759L89.194 41.9099L102.586 46.2299L89.194 50.7759L74.794 45.9759Z" fill="white"/>
</g>
<defs>
<clipPath id="clip0_610_3689">
<rect width="64" height="64" fill="white" transform="translate(40 40)"/>
</clipPath>
</defs>
</svg>
