<svg width="144" height="144" viewBox="0 0 144 144" fill="none" xmlns="http://www.w3.org/2000/svg">
<circle cx="72" cy="72" r="72" fill="#17B5EB"/>
<g clip-path="url(#clip0_610_3691)">
<path d="M76.9998 70.625H82.2498V65.875H76.9998V70.625ZM70.7498 70.625H75.9998V65.875H70.7498V70.625ZM64.6248 70.625H69.8748V65.875H64.6248V70.625ZM58.4998 70.625H63.6248V65.875H58.4998V70.625ZM52.2498 70.625H57.4998V65.875H52.2498V70.625ZM58.4998 64.875H63.6248V60.125H58.4998V64.875ZM64.6248 64.875H69.8748V60.125H64.6248V64.875ZM70.7498 64.875H75.9998V60.125H70.7498V64.875ZM70.7498 59.125H75.9998V54.375H70.7498V59.125ZM98.9998 68.5C98.9998 68.5 96.7498 66.375 92.1248 67.125C91.6248 63.5 87.7498 61.375 87.7498 61.375C87.7498 61.375 84.1248 65.75 86.7498 70.625C85.9998 71 84.7498 71.5 82.8748 71.5H48.4998C47.8748 73.875 47.8748 89.625 65.1248 89.625C77.4998 89.625 86.7498 83.875 91.1248 73.375C97.6248 73.875 98.9998 68.5 98.9998 68.5Z" fill="white"/>
</g>
<defs>
<clipPath id="clip0_610_3691">
<rect width="64" height="64" fill="white" transform="translate(40 40)"/>
</clipPath>
</defs>
</svg>
