<svg width="144" height="144" viewBox="0 0 144 144" fill="none" xmlns="http://www.w3.org/2000/svg">
<circle cx="72" cy="72" r="72" fill="#F03C2E"/>
<g clip-path="url(#clip0_610_3690)">
<path d="M102.792 69.1499L74.85 41.2079C74.4674 40.8251 74.0131 40.5215 73.5131 40.3143C73.0131 40.1071 72.4772 40.0005 71.936 40.0005C71.3948 40.0005 70.8589 40.1071 70.3589 40.3143C69.8589 40.5215 69.4046 40.8251 69.022 41.2079L63.222 47.0079L70.582 54.3679C72.294 53.7679 74.254 54.1779 75.618 55.5419C76.2673 56.1924 76.7206 57.0124 76.926 57.9082C77.1315 58.804 77.0809 59.7395 76.78 60.6079L83.874 67.7019C85.59 67.1099 87.57 67.4919 88.94 68.8659C89.3954 69.3215 89.7567 69.8623 90.0031 70.4574C90.2495 71.0526 90.3763 71.6905 90.3762 72.3346C90.3761 72.9788 90.2491 73.6166 90.0025 74.2117C89.7559 74.8068 89.3946 75.3475 88.939 75.8029C88.4834 76.2584 87.9426 76.6196 87.3475 76.866C86.7523 77.1124 86.1145 77.2392 85.4703 77.2391C84.8261 77.239 84.1883 77.1121 83.5932 76.8655C82.9981 76.6189 82.4574 76.2575 82.002 75.8019C80.562 74.3619 80.206 72.2419 80.934 70.4679L74.318 63.8519V81.2619C74.7983 81.4996 75.2372 81.8129 75.618 82.1899C76.0734 82.6454 76.4347 83.186 76.6812 83.7811C76.9276 84.3761 77.0545 85.0139 77.0545 85.6579C77.0545 86.302 76.9276 86.9398 76.6812 87.5348C76.4347 88.1298 76.0734 88.6705 75.618 89.1259C75.1626 89.5814 74.6219 89.9426 74.0269 90.1891C73.4318 90.4356 72.7941 90.5624 72.15 90.5624C71.5059 90.5624 70.8682 90.4356 70.2731 90.1891C69.6781 89.9426 69.1374 89.5814 68.682 89.1259C68.226 88.6708 67.8643 88.1302 67.6175 87.5352C67.3707 86.9401 67.2436 86.3022 67.2436 85.6579C67.2436 85.0137 67.3707 84.3758 67.6175 83.7807C67.8643 83.1856 68.226 82.6451 68.682 82.1899C69.156 81.7179 69.682 81.3599 70.288 81.1199V63.5479C69.704 63.3079 69.156 62.9539 68.682 62.4779C67.9933 61.7901 67.5251 60.9128 67.3371 59.9578C67.149 59.0028 67.2496 58.0135 67.626 57.1159L60.366 49.8599L41.206 68.9999C40.8229 69.3826 40.519 69.837 40.3116 70.3372C40.1043 70.8373 39.9976 71.3735 39.9976 71.9149C39.9976 72.4564 40.1043 72.9925 40.3116 73.4927C40.519 73.9929 40.8229 74.4473 41.206 74.8299L69.15 102.77C69.5326 103.153 69.9869 103.456 70.4869 103.664C70.9869 103.871 71.5228 103.977 72.064 103.977C72.6052 103.977 73.1411 103.871 73.6411 103.664C74.1411 103.456 74.5954 103.153 74.978 102.77L102.792 74.9999C103.175 74.6173 103.479 74.1629 103.686 73.6627C103.894 73.1625 104 72.6264 104 72.0849C104 71.5435 103.894 71.0073 103.686 70.5072C103.479 70.007 103.175 69.5526 102.792 69.1699" fill="white"/>
</g>
<defs>
<clipPath id="clip0_610_3690">
<rect width="64" height="64" fill="white" transform="translate(40 40)"/>
</clipPath>
</defs>
</svg>
