<svg width="144" height="144" viewBox="0 0 144 144" fill="none" xmlns="http://www.w3.org/2000/svg">
<circle cx="72" cy="72" r="72" fill="#F8981D"/>
<g clip-path="url(#clip0_596_3391)">
<path d="M63.2438 89.48C63.2438 89.48 60.7838 90.976 64.9538 91.404C69.9738 92.044 72.6478 91.938 78.2038 90.87C79.3205 91.5538 80.5015 92.1265 81.7298 92.58C69.2298 97.924 53.4118 92.26 63.2438 89.48ZM61.6438 82.534C61.6438 82.534 58.9718 84.564 63.1398 84.994C68.5898 85.528 72.8638 85.634 80.2398 84.14C80.9572 84.8675 81.8355 85.4163 82.8038 85.742C67.7358 90.23 50.8518 86.168 61.6438 82.534ZM91.1378 94.714C91.1378 94.714 92.9538 96.21 89.1078 97.386C81.9478 99.526 59.0798 100.166 52.6678 97.386C50.4238 96.426 54.6978 95.036 56.0678 94.822C57.4578 94.502 58.2078 94.502 58.2078 94.502C55.7478 92.792 41.8578 98.028 51.1558 99.522C76.6958 103.69 97.7478 97.706 91.1218 94.714H91.1378ZM64.3998 75.266C64.3998 75.266 52.7518 78.046 60.2318 79.006C63.4378 79.434 69.7418 79.326 75.6198 78.9C80.4278 78.472 85.2398 77.62 85.2398 77.62C85.2398 77.62 83.5298 78.368 82.3538 79.116C70.4938 82.216 47.7298 80.826 54.2498 77.62C59.8058 74.948 64.4018 75.27 64.4018 75.27L64.3998 75.266ZM85.2398 86.914C97.2078 80.714 91.6518 74.734 87.8038 75.48C86.8438 75.694 86.4138 75.908 86.4138 75.908C86.4138 75.908 86.7338 75.268 87.4818 75.054C95.0698 72.382 101.054 83.068 85.0218 87.234C85.0218 87.234 85.1278 87.128 85.2358 86.914H85.2398ZM65.5798 103.798C77.1198 104.546 94.7538 103.37 95.1798 97.918C95.1798 97.918 94.3258 100.058 85.6698 101.658C75.8378 103.474 63.6558 103.258 56.4958 102.086C56.4958 102.086 57.9918 103.368 65.5798 103.798Z" fill="white"/>
<path d="M77.9918 40.002C77.9918 40.002 84.6178 46.734 71.6878 56.886C61.3218 65.114 69.3378 69.816 71.6878 75.16C65.5958 69.71 61.2158 64.9 64.2078 60.414C68.5878 53.786 80.6638 50.6 77.9918 40.002ZM74.5918 70.672C77.6918 74.198 73.7378 77.404 73.7378 77.404C73.7378 77.404 81.6458 73.344 78.0118 68.32C74.6998 63.512 72.1318 61.16 86.0258 53.146C86.0258 53.146 64.1198 58.596 74.5918 70.672Z" fill="white"/>
</g>
<defs>
<clipPath id="clip0_596_3391">
<rect width="64" height="64" fill="white" transform="translate(40 40)"/>
</clipPath>
</defs>
</svg>
