<svg width="14" height="14" viewBox="0 0 14 14" fill="none" xmlns="http://www.w3.org/2000/svg">
<path fill-rule="evenodd" clip-rule="evenodd" d="M5.8335 1.16667C5.36937 1.16667 4.92425 1.35105 4.59606 1.67923C4.26787 2.00742 4.0835 2.45254 4.0835 2.91667V3.50001H2.3335C1.367 3.50001 0.583496 4.28351 0.583496 5.25V11.0833C0.583496 12.0498 1.367 12.8333 2.3335 12.8333H11.6668C12.6333 12.8333 13.4168 12.0498 13.4168 11.0833V5.25C13.4168 4.28351 12.6333 3.50001 11.6668 3.50001H9.91683V2.91667C9.91683 2.45254 9.73246 2.00742 9.40427 1.67923C9.07608 1.35105 8.63096 1.16667 8.16683 1.16667H5.8335ZM8.75016 3.50001V2.91667C8.75016 2.76196 8.68871 2.61359 8.57931 2.50419C8.46991 2.3948 8.32154 2.33334 8.16683 2.33334H5.8335C5.67879 2.33334 5.53041 2.3948 5.42102 2.50419C5.31162 2.61359 5.25016 2.76196 5.25016 2.91667V3.50001H8.75016ZM5.25016 4.66667H8.75016V11.6667H5.25016V4.66667ZM4.0835 4.66667H2.3335C2.01133 4.66667 1.75016 4.92784 1.75016 5.25V11.0833C1.75016 11.4055 2.01133 11.6667 2.3335 11.6667H4.0835V4.66667ZM9.91683 11.6667V4.66667H11.6668C11.989 4.66667 12.2502 4.92784 12.2502 5.25V11.0833C12.2502 11.4055 11.989 11.6667 11.6668 11.6667H9.91683Z" fill="#12F7D6"/>
</svg>
