<svg width="144" height="144" viewBox="0 0 144 144" fill="none" xmlns="http://www.w3.org/2000/svg">
<circle cx="72" cy="72" r="72" fill="#00678C"/>
<g clip-path="url(#clip0_610_3685)">
<path fill-rule="evenodd" clip-rule="evenodd" d="M98.9515 89.8526C95.4707 89.7557 92.7703 90.1124 90.507 91.0645C89.8553 91.3263 88.8095 91.3263 88.7236 92.1465C89.0719 92.4907 89.1138 93.054 89.4192 93.531C89.9411 94.3968 90.8562 95.5631 91.6825 96.1681L94.4678 98.1585C96.1653 99.1959 98.0803 99.8019 99.7339 100.84C100.692 101.446 101.649 102.225 102.607 102.874C103.095 103.22 103.39 103.784 104 103.999V103.868C103.696 103.48 103.608 102.918 103.305 102.484L101.997 101.23C100.736 99.543 99.1681 98.0713 97.4706 96.8613C96.0775 95.9092 93.0317 94.612 92.4659 93.0123L92.38 92.9153C93.3361 92.8184 94.4678 92.482 95.3829 92.2221C96.8638 91.8343 98.212 91.9196 99.7339 91.5309L101.825 90.9249V90.5371C101.041 89.7586 100.475 88.7202 99.649 87.9853C97.4296 86.0821 94.9907 84.2216 92.4659 82.6646C91.1167 81.7997 89.3753 81.2364 87.9392 80.5025C87.4154 80.2427 86.5461 80.1128 86.2418 79.6804C85.4564 78.7302 85.0223 77.4747 84.4565 76.3491L80.8878 68.8226C80.1044 67.1357 79.6244 65.4487 78.6684 63.8916C74.1847 56.5378 69.3087 52.0828 61.8222 47.7132C60.2125 46.8047 58.2975 46.414 56.2614 45.9389L52.9972 45.7644C52.2996 45.4619 51.604 44.6398 50.9943 44.25C48.5134 42.693 42.1147 39.319 40.2855 43.7653C39.1099 46.5769 42.0269 49.3449 43.0171 50.773C43.7585 51.7677 44.7146 52.8924 45.2384 54.017C45.5311 54.7519 45.6287 55.5314 45.934 56.31C46.6296 58.2131 47.2832 60.3335 48.1974 62.1077C48.6851 63.0162 49.1973 63.9692 49.807 64.7904C50.1553 65.2752 50.7651 65.4826 50.8948 66.2612C50.2851 67.1269 50.2431 68.4232 49.8948 69.5062C48.3271 74.3945 48.9368 80.4502 51.1563 84.049C51.8538 85.1301 53.4976 87.5102 55.7278 86.6008C57.6867 85.8223 57.2497 83.3568 57.8155 81.1938C57.9472 80.6751 57.8594 80.329 58.1199 79.9819V80.0788L59.9052 83.669C61.2544 85.7884 63.6055 87.995 65.5635 89.4667C66.6074 90.2453 67.4347 91.5871 68.74 92.0622V91.9313H68.6541C68.3927 91.5435 68.0005 91.369 67.6522 91.0665C66.8688 90.2879 65.9986 89.3359 65.3889 88.471C63.5616 86.0492 61.9519 83.3665 60.5149 80.5985C59.8174 79.2576 59.2077 77.7869 58.6438 76.446C58.3804 75.9264 58.3804 75.1469 57.9463 74.889C57.2926 75.8391 56.3366 76.6632 55.8556 77.8305C55.0283 79.6901 54.9425 81.983 54.6381 84.3622C54.4625 84.4058 54.5405 84.3622 54.4625 84.4591C53.0713 84.114 52.5913 82.6849 52.0694 81.475C50.7641 78.4035 50.5455 73.4725 51.6772 69.925C51.9816 69.0166 53.2889 66.1613 52.7669 65.2965C52.5035 64.4743 51.6353 63.9993 51.1553 63.3497C50.5894 62.5275 49.9817 61.4901 49.5895 60.5817C48.5456 58.1579 48.0237 55.4771 46.8911 53.0543C46.3672 51.9296 45.454 50.7614 44.7136 49.724C43.8863 48.5557 42.9741 47.7335 42.3205 46.35C42.1029 45.8653 41.7986 45.0955 42.1468 44.5758C42.2327 44.2297 42.4083 44.091 42.7546 44.0135C43.3205 43.5287 44.9321 44.1434 45.4979 44.4013C47.1076 45.0509 48.4568 45.6558 49.8061 46.5633C50.4158 46.9957 51.0694 47.8179 51.8528 48.0351H52.7679C54.161 48.3376 55.7268 48.132 57.0312 48.5198C59.3384 49.2567 61.4271 50.3367 63.3002 51.506C69.0014 55.0961 73.7037 60.2007 76.8802 66.3009C77.4021 67.2956 77.6196 68.2041 78.0996 69.2425C79.0147 71.3628 80.1464 73.5248 81.0585 75.6025C81.9736 77.6356 82.8438 79.7133 84.1491 81.4003C84.8028 82.3087 87.4134 82.7838 88.588 83.2598C89.4592 83.6477 90.8074 83.9967 91.5928 84.4717C93.0717 85.3802 94.5517 86.4186 95.9438 87.4133C96.6394 87.931 98.8169 89.013 98.9466 89.8759L98.9515 89.8526ZM54.563 52.2622C53.9616 52.2569 53.3621 52.3296 52.7796 52.4784V52.5753H52.8655C53.2137 53.2676 53.8235 53.7436 54.2586 54.3496L55.2605 56.4263L55.3463 56.3293C55.9561 55.8969 56.2614 55.2047 56.2614 54.1673C56 53.8648 55.9571 53.5614 55.7395 53.2589C55.478 52.8265 54.9122 52.6093 54.563 52.2641V52.2622Z" fill="white"/>
</g>
<defs>
<clipPath id="clip0_610_3685">
<rect width="64" height="64" fill="white" transform="translate(40 40)"/>
</clipPath>
</defs>
</svg>
