<svg width="144" height="144" viewBox="0 0 144 144" fill="none" xmlns="http://www.w3.org/2000/svg">
<circle cx="72" cy="72" r="72" fill="#E7A020"/>
<path d="M89.65 48.5669C89.5549 48.567 89.4614 48.592 89.3789 48.6392C89.2968 48.6873 89.2286 48.7559 89.181 48.8383C89.1335 48.9208 89.1082 49.0142 89.1078 49.1093V62.9394C89.1078 63.0751 89.0444 63.1967 88.9269 63.2648C88.8692 63.2984 88.8037 63.3161 88.737 63.3161C88.6703 63.3161 88.6048 63.2984 88.5472 63.2648L86.2873 61.9632C86.1225 61.8678 85.9354 61.8176 85.745 61.8176C85.5546 61.8176 85.3675 61.8678 85.2026 61.9632L76.1818 67.1696C75.8446 67.3641 75.639 67.7385 75.639 68.1277V78.5408C75.6388 78.7314 75.6888 78.9186 75.784 79.0837C75.8793 79.2487 76.0164 79.3857 76.1815 79.4808L85.2026 84.6875C85.3674 84.7831 85.5545 84.8335 85.745 84.8335C85.9355 84.8335 86.1226 84.7831 86.2873 84.6875L95.3084 79.4808C95.4736 79.3857 95.6107 79.2487 95.7059 79.0837C95.8012 78.9186 95.8512 78.7314 95.8509 78.5408V52.5803C95.8509 52.1853 95.6354 51.8147 95.2906 51.6222L89.9214 48.6209C89.8369 48.5739 89.7435 48.5658 89.65 48.5669ZM31.6182 61.5652C31.4461 61.5722 31.2845 61.6021 31.13 61.6918L22.1091 66.8983C21.9439 66.9932 21.8067 67.1302 21.7114 67.2953C21.6162 67.4603 21.5663 67.6477 21.5669 67.8383L21.5852 81.8133C21.5852 82.0078 21.6857 82.1882 21.8566 82.2831C22.0242 82.3836 22.232 82.3836 22.3988 82.2831L27.75 79.2097C28.0892 79.0087 28.3103 78.6579 28.3103 78.27V71.7434C28.3103 71.3539 28.5151 70.9971 28.853 70.8037L31.131 69.484C31.2956 69.3883 31.4828 69.3383 31.6732 69.3393C31.8637 69.3382 32.0511 69.3881 32.2157 69.484L34.4926 70.8029C34.8301 70.9964 35.0349 71.3537 35.0349 71.7426V78.269C35.0349 78.6574 35.261 79.0102 35.5952 79.2087L40.9463 82.2821C41.1147 82.3826 41.322 82.3826 41.4886 82.2821C41.6544 82.1867 41.7599 82.0065 41.7599 81.8123L41.778 67.8378C41.7791 67.6471 41.7295 67.4595 41.6342 67.2944C41.5389 67.1292 41.4014 66.9923 41.2358 66.8978L32.2149 61.6916C32.0624 61.6021 31.9001 61.572 31.7267 61.565L31.6182 61.5652ZM112.682 61.6918C112.491 61.6913 112.304 61.7413 112.139 61.8366L103.118 67.0433C102.782 67.238 102.575 67.594 102.575 67.983V78.3961C102.575 78.7876 102.796 79.1423 103.136 79.3358L112.085 84.4365C112.415 84.6249 112.818 84.6392 113.151 84.4541L118.575 81.4349C118.747 81.3394 118.863 81.161 118.864 80.965C118.864 80.769 118.762 80.5926 118.592 80.4951L109.517 75.2885C109.347 75.1915 109.228 74.9952 109.228 74.8003V71.5441C109.228 71.3497 109.348 71.1713 109.517 71.0743L112.337 69.4471C112.505 69.3501 112.711 69.3501 112.88 69.4471L115.701 71.0743C115.784 71.1217 115.852 71.1902 115.9 71.2727C115.947 71.3552 115.972 71.4489 115.972 71.5441V74.1113C115.972 74.2066 115.997 74.3002 116.044 74.3827C116.092 74.4652 116.161 74.5337 116.243 74.5812C116.412 74.6787 116.617 74.6792 116.786 74.5812L122.191 71.4361C122.527 71.2411 122.734 70.8841 122.734 70.4964V67.9837C122.734 67.7932 122.684 67.6061 122.589 67.4411C122.493 67.2761 122.356 67.1391 122.191 67.0438L113.225 61.8371C113.06 61.7417 112.872 61.6912 112.682 61.6918ZM85.7087 69.4659C85.7592 69.4657 85.8089 69.4781 85.8534 69.5019L88.9447 71.2916C89.0286 71.3401 89.0894 71.4298 89.0894 71.5266V75.106C89.0894 75.2033 89.0291 75.2927 88.9447 75.341L85.8534 77.1307C85.7692 77.1785 85.6665 77.1785 85.582 77.1307L82.4908 75.341C82.4066 75.2925 82.346 75.2028 82.346 75.106V71.526C82.346 71.4291 82.4068 71.3401 82.4908 71.2911L85.582 69.5016C85.6243 69.4772 85.6614 69.4659 85.7087 69.4659Z" fill="white"/>
<path d="M58.7179 61.6373C58.5274 61.637 58.3402 61.6869 58.1752 61.7821L49.154 66.9707C48.8169 67.1651 48.6118 67.5398 48.6118 67.9287V78.3418C48.6113 78.5324 48.6612 78.7197 48.7564 78.8847C48.8517 79.0497 48.9888 79.1867 49.154 79.2816L58.1752 84.4882C58.3399 84.5839 58.527 84.6342 58.7175 84.6342C58.908 84.6342 59.0951 84.5839 59.2599 84.4882L68.281 79.2816C68.4461 79.1865 68.5832 79.0495 68.6785 78.8844C68.7737 78.7194 68.8237 78.5321 68.8235 78.3416V67.9285C68.8235 67.539 68.6184 67.1646 68.2807 66.9704L59.2596 61.7818C59.0948 61.6862 58.9074 61.6363 58.7169 61.6371L58.7179 61.6373ZM112.664 70.9298C112.628 70.9298 112.588 70.9298 112.556 70.9474L110.82 71.96C110.788 71.978 110.761 72.0041 110.742 72.0358C110.723 72.0675 110.712 72.1037 110.712 72.1407V74.1294C110.712 74.2043 110.755 74.2726 110.82 74.3103L112.556 75.3046C112.585 75.323 112.62 75.3328 112.655 75.3328C112.69 75.3328 112.724 75.323 112.754 75.3046L114.49 74.3103C114.554 74.2734 114.598 74.2043 114.598 74.1294V72.1407C114.598 72.0658 114.554 71.9974 114.49 71.9598L112.754 70.9472C112.722 70.9281 112.7 70.9296 112.664 70.9296L112.664 70.9298Z" fill="white"/>
</svg>
