<svg width="144" height="144" viewBox="0 0 144 144" fill="none" xmlns="http://www.w3.org/2000/svg">
<circle cx="72" cy="72" r="72" fill="#336791"/>
<g clip-path="url(#clip0_610_3692)">
<path d="M87.4575 86.5899C87.865 83.1974 87.7425 82.7024 90.2675 83.2499L90.91 83.3074C92.8525 83.3949 95.3925 82.9949 96.91 82.3024C100.123 80.8124 102.028 78.3224 98.86 78.9774C91.635 80.4674 91.11 78.0199 91.11 78.0199C98.7425 66.6949 101.935 52.3199 99.1775 48.8024C91.6675 39.2024 78.665 43.7424 78.4475 43.8624L78.3775 43.8749C76.9525 43.5749 75.3775 43.3999 73.5525 43.3749C70.2825 43.3249 67.8025 44.2324 65.9175 45.6599C65.9175 45.6599 42.725 36.1049 43.8025 57.6774C44.0325 62.2674 50.3775 92.4274 57.9525 83.3024C60.725 79.9674 63.4 77.1499 63.4 77.1499C64.725 78.0324 66.3175 78.4824 67.985 78.3199L68.115 78.2099C68.0766 78.642 68.0942 79.0773 68.1675 79.5049C66.2175 81.6849 66.7925 82.0674 62.8925 82.8699C58.9475 83.6824 61.2675 85.1299 62.7775 85.5099C64.6125 85.9699 68.8575 86.6199 71.7275 82.6049L71.6125 83.0624C72.3775 83.6749 72.325 87.4624 72.4375 90.1674C72.55 92.8724 72.7275 95.3999 73.28 96.8874C73.8325 98.3749 74.48 102.212 79.605 101.137C83.8875 100.22 87.1625 98.8974 87.4625 86.6124" fill="black"/>
<path d="M87.4575 86.5899C87.865 83.1974 87.7425 82.7024 90.2675 83.2499L90.91 83.3074C92.8525 83.3949 95.3925 82.9949 96.91 82.3024C100.123 80.8124 102.028 78.3224 98.86 78.9774C91.635 80.4674 91.11 78.0199 91.11 78.0199C98.7425 66.6949 101.935 52.3199 99.1775 48.8024C91.6675 39.2024 78.665 43.7424 78.4475 43.8624L78.3775 43.8749C76.9525 43.5749 75.3775 43.3999 73.5525 43.3749C70.2825 43.3249 67.8025 44.2324 65.9175 45.6599C65.9175 45.6599 42.725 36.1049 43.8025 57.6774C44.0325 62.2674 50.3775 92.4274 57.9525 83.3024C60.725 79.9674 63.4 77.1499 63.4 77.1499C64.725 78.0324 66.3175 78.4824 67.985 78.3199L68.115 78.2099C68.0766 78.642 68.0942 79.0773 68.1675 79.5049C66.2175 81.6849 66.7925 82.0674 62.8925 82.8699C58.9475 83.6824 61.2675 85.1299 62.7775 85.5099C64.6125 85.9699 68.8575 86.6199 71.7275 82.6049L71.6125 83.0624C72.3775 83.6749 72.325 87.4624 72.4375 90.1674C72.55 92.8724 72.7275 95.3999 73.28 96.8874C73.8325 98.3749 74.48 102.212 79.605 101.137C83.8875 100.22 87.1625 98.8974 87.4625 86.6124" stroke="black" stroke-width="5.3725"/>
<path d="M98.8376 78.9998C91.6126 80.4898 91.0876 78.0423 91.0876 78.0423C98.7201 66.7173 101.913 52.3423 99.1576 48.8248C91.6476 39.2248 78.6451 43.7673 78.4276 43.8848L78.3576 43.8973C76.7695 43.5787 75.1548 43.4104 73.5351 43.3948C70.2651 43.3448 67.7851 44.2523 65.9001 45.6798C65.9001 45.6798 42.7051 36.1248 43.7851 57.6973C44.0151 62.2873 50.3601 92.4473 57.9351 83.3223C60.7251 79.9673 63.4001 77.1498 63.4001 77.1498C64.7251 78.0323 66.3176 78.4823 67.9851 78.3198L68.1151 78.2098C68.0769 78.642 68.0946 79.0772 68.1676 79.5048C66.2176 81.6848 66.7926 82.0673 62.8926 82.8698C58.9476 83.6823 61.2676 85.1298 62.7776 85.5098C64.6126 85.9698 68.8576 86.6198 71.7276 82.6048L71.6126 83.0623C72.3776 83.6748 72.9126 87.0448 72.8226 90.0998C72.7326 93.1548 72.6726 95.2498 73.2726 96.8898C73.8726 98.5298 74.4726 102.215 79.5976 101.14C83.8801 100.222 86.0976 97.8398 86.4101 93.8748C86.6301 91.0548 87.1251 91.4698 87.1601 88.9498L87.5601 87.7548C88.0176 83.9298 87.6351 82.6973 90.2726 83.2723L90.9151 83.3298C92.8576 83.4173 95.4001 83.0173 96.8901 82.3248C100.103 80.8348 102.005 78.3448 98.8376 78.9998Z" fill="white"/>
<path d="M72.0352 81.1674C71.8352 88.2824 72.0852 95.4474 72.7802 97.1674C73.4752 98.8874 74.9677 102.292 80.0952 101.197C84.3777 100.28 85.9377 98.5024 86.6127 94.5799L88.1952 82.0374M65.8902 45.4999C65.8902 45.4999 42.6802 36.0099 43.7602 57.5824C43.9902 62.1724 50.3352 92.3324 57.9102 83.2074C60.6752 79.8749 63.1752 77.2674 63.1752 77.2674M78.4252 43.7674C77.6252 44.0174 91.3352 38.7549 99.1302 48.7124C101.88 52.2299 98.6927 66.6049 91.0602 77.9299" stroke="#336791" stroke-width="1.79" stroke-linecap="round" stroke-linejoin="round"/>
<path d="M91.0627 77.9249C91.0627 77.9249 91.5627 80.3749 98.8127 78.8799C101.98 78.2249 100.073 80.7149 96.8627 82.2049C94.2277 83.4299 88.3177 83.7424 88.2202 82.0549C87.9702 77.6924 91.3302 79.0174 91.0877 77.9249C90.8677 76.9399 89.3627 75.9749 88.3727 73.5649C87.5052 71.4649 76.4727 55.3399 91.4327 57.7324C91.9827 57.6199 87.5327 43.4824 73.5327 43.2774C59.5327 43.0724 59.9752 60.4899 59.9752 60.4899" stroke="#336791" stroke-width="1.79" stroke-linecap="round" stroke-linejoin="bevel"/>
<path d="M68.1176 79.4199C66.1676 81.5999 66.7426 81.9824 62.8426 82.7849C58.8976 83.5974 61.2176 85.0449 62.7276 85.4249C64.5626 85.8849 68.8076 86.5349 71.6776 82.5174C72.5526 81.2924 71.6726 79.3424 70.4726 78.8474C69.8926 78.6074 69.1176 78.3074 68.1226 79.4224L68.1176 79.4199Z" stroke="#336791" stroke-width="1.79" stroke-linejoin="round"/>
<path d="M67.9903 79.3825C67.7903 78.1 68.4103 76.5775 69.0728 74.7925C70.0678 72.1175 72.3628 69.4425 70.5278 60.95C69.1603 54.625 59.9778 59.6325 59.9778 60.49C59.9778 61.3475 60.3928 64.84 59.8278 68.9025C59.0853 74.2075 63.2028 78.6925 67.9428 78.235" stroke="#336791" stroke-width="1.79" stroke-linecap="round" stroke-linejoin="round"/>
<path d="M65.8054 60.3624C65.7629 60.6549 66.3429 61.4374 67.0954 61.5424C67.8479 61.6474 68.4904 61.0374 68.5329 60.7424C68.5754 60.4474 67.9954 60.1274 67.2429 60.0224C66.4904 59.9174 65.8429 60.0724 65.8054 60.3624Z" fill="#336791" stroke="#336791" stroke-width="0.5975"/>
<path d="M88.7156 59.765C88.7556 60.0575 88.1781 60.84 87.4256 60.945C86.6731 61.05 86.0256 60.44 85.9881 60.145C85.9506 59.85 86.5256 59.53 87.2781 59.425C88.0306 59.32 88.6781 59.475 88.7156 59.765Z" fill="#336791" stroke="#336791" stroke-width="0.2975"/>
<path d="M91.4054 57.7373C91.5304 60.0373 90.9104 61.5998 90.8304 64.0473C90.7154 67.6023 92.5254 71.6723 89.7979 75.7473" stroke="#336791" stroke-width="1.79" stroke-linecap="round" stroke-linejoin="round"/>
</g>
<defs>
<clipPath id="clip0_610_3692">
<rect width="64" height="64" fill="white" transform="translate(40 40)"/>
</clipPath>
</defs>
</svg>
