<svg width="144" height="144" viewBox="0 0 144 144" fill="none" xmlns="http://www.w3.org/2000/svg">
<circle cx="72" cy="72" r="72" fill="#010409"/>
<path d="M104 89.59C101.672 90.182 100.232 89.616 98.94 87.676L89.752 74.964L88.424 73.204L77.694 87.718C76.468 89.464 75.182 90.224 72.894 89.606L86.634 71.162L73.842 54.502C76.042 54.074 77.562 54.292 78.912 56.262L88.442 69.132L98.042 56.332C99.272 54.586 100.594 53.922 102.802 54.566L97.842 61.142L91.122 69.892C90.322 70.892 90.432 71.576 91.168 72.542L104 89.59ZM40.016 70.854L41.14 65.326C44.2 54.386 56.74 49.84 65.388 56.6C70.442 60.576 71.698 66.2 71.448 72.5H42.96C42.532 83.84 50.694 90.684 61.1 87.192C64.75 85.966 66.9 83.108 67.976 79.532C68.522 77.74 69.426 77.46 71.11 77.972C70.25 82.444 68.31 86.18 64.21 88.518C58.084 92.018 49.34 90.886 44.74 86.022C42 83.2 40.868 79.624 40.36 75.8C40.28 75.168 40.12 74.566 40 73.96C40.0107 72.9253 40.016 71.8907 40.016 70.856V70.854ZM43.012 70.094H68.756C68.588 61.894 63.482 56.07 56.504 56.02C48.844 55.96 43.344 61.646 43.012 70.094Z" fill="white"/>
</svg>
