<svg width="14" height="14" viewBox="0 0 14 14" fill="none" xmlns="http://www.w3.org/2000/svg">
<g clip-path="url(#clip0_521_910)">
<path d="M9.91414 0.622218C8.99645 0.614243 8.11234 0.967024 7.45223 1.60458L7.44621 1.61048L6.44287 2.60798C6.2144 2.83512 6.21333 3.20447 6.44047 3.43294C6.66761 3.66141 7.03695 3.66248 7.26542 3.43534L8.2656 2.44098C8.70537 2.01769 9.29354 1.78354 9.904 1.78884C10.5158 1.79416 11.101 2.03955 11.5336 2.47217C11.9663 2.90479 12.2117 3.49002 12.217 4.10181C12.2223 4.71201 11.9883 5.29993 11.5654 5.73963L9.81917 7.48585C9.58262 7.72248 9.29788 7.90555 8.98439 8.02249C8.6709 8.13943 8.33593 8.18758 8.0022 8.16368C7.66846 8.13978 7.34377 8.04438 7.05015 7.88396C6.75653 7.72354 6.50084 7.50185 6.30043 7.23392C6.10746 6.97595 5.74189 6.92325 5.48391 7.11622C5.22593 7.30919 5.17323 7.67475 5.3662 7.93273C5.66682 8.33462 6.05035 8.66716 6.49079 8.90779C6.93122 9.14842 7.41826 9.29151 7.91886 9.32737C8.41946 9.36322 8.92191 9.29099 9.39214 9.11558C9.86237 8.94017 10.2894 8.66568 10.6442 8.31073L12.3941 6.56081L12.4012 6.55358C13.0388 5.89347 13.3916 5.00936 13.3836 4.09167C13.3756 3.17398 13.0075 2.29614 12.3586 1.64721C11.7097 0.998284 10.8318 0.630192 9.91414 0.622218Z" fill="#12F7D6"/>
<path d="M6.08108 4.67262C5.58048 4.63677 5.07802 4.709 4.60779 4.88441C4.13759 5.0598 3.71061 5.33427 3.35581 5.68918L1.60581 7.43918L1.5987 7.44641C0.961149 8.10652 0.608369 8.99063 0.616343 9.90831C0.624318 10.826 0.992409 11.7038 1.64134 12.3528C2.29027 13.0017 3.16811 13.3698 4.0858 13.3778C5.00349 13.3857 5.88759 13.033 6.5477 12.3954L6.55493 12.3883L7.55243 11.3908C7.78024 11.163 7.78024 10.7937 7.55243 10.5658C7.32463 10.338 6.95528 10.338 6.72748 10.5658L5.73375 11.5596C5.29405 11.9825 4.70613 12.2164 4.09594 12.2111C3.48414 12.2058 2.89891 11.9604 2.4663 11.5278C2.03368 11.0952 1.78828 10.51 1.78297 9.89818C1.77766 9.28798 2.01161 8.70005 2.43455 8.26035L4.18077 6.51414C4.41731 6.2775 4.70206 6.09444 5.01555 5.9775C5.32903 5.86056 5.664 5.81241 5.99774 5.83631C6.33147 5.86021 6.65616 5.9556 6.94978 6.11602C7.24341 6.27644 7.4991 6.49814 7.69951 6.76606C7.89248 7.02404 8.25805 7.07674 8.51603 6.88377C8.774 6.6908 8.8267 6.32523 8.63373 6.06725C8.33312 5.66536 7.94958 5.33283 7.50915 5.0922C7.06871 4.85157 6.58168 4.70847 6.08108 4.67262Z" fill="#12F7D6"/>
</g>
<defs>
<clipPath id="clip0_521_910">
<rect width="14" height="14" fill="white"/>
</clipPath>
</defs>
</svg>
