<svg width="144" height="144" viewBox="0 0 144 144" fill="none" xmlns="http://www.w3.org/2000/svg">
<circle cx="72" cy="72" r="72" fill="#599636"/>
<g clip-path="url(#clip0_610_3693)">
<path d="M71.8002 40.174L73.5082 43.382C73.8922 43.974 74.3082 44.498 74.7982 44.986C76.2282 46.416 77.5862 47.914 78.8062 49.518C81.7002 53.318 83.6522 57.5379 85.0462 62.1019C85.8822 64.8899 86.3362 67.75 86.3702 70.642C86.5102 79.288 83.5462 86.712 77.5702 92.882C76.5942 93.858 75.5502 94.762 74.4302 95.566C73.8382 95.566 73.5582 95.112 73.3142 94.694C72.8602 93.928 72.5822 93.0539 72.4422 92.1839C72.2322 91.1379 72.0942 90.092 72.1622 89.012V88.5239C72.1142 88.4199 71.5922 40.42 71.8002 40.174Z" fill="#B7DAA4"/>
<path d="M71.8001 40.068C71.7301 39.928 71.6601 40.034 71.5901 40.102C71.6241 40.802 71.3801 41.426 70.9981 42.022C70.5781 42.614 70.0221 43.068 69.4641 43.556C66.3641 46.24 63.9241 49.482 61.9701 53.108C59.3701 57.988 58.0301 63.218 57.6501 68.724C57.4761 70.71 58.2781 77.718 58.9041 79.74C60.6121 85.108 63.6801 89.6059 67.6541 93.5099C68.6301 94.4499 69.6741 95.322 70.7541 96.16C71.0681 96.16 71.1021 95.88 71.1741 95.672C71.3118 95.2269 71.4167 94.7723 71.4881 94.312L72.1881 89.084L71.8001 40.068Z" fill="white"/>
<path d="M73.5079 97.69C73.5779 96.89 73.9619 96.226 74.3799 95.564C73.9599 95.39 73.6479 95.044 73.4039 94.658C73.1939 94.31 73.0199 93.892 72.8839 93.508C72.3959 92.044 72.2919 90.508 72.1519 89.012V88.106C71.9779 88.246 71.9419 89.43 71.9419 89.606C71.8401 91.1871 71.6303 92.7594 71.3139 94.312C71.2099 94.94 71.1399 95.566 70.7539 96.124C70.7539 96.194 70.7539 96.264 70.7879 96.368C71.4159 98.216 71.5879 100.098 71.6939 102.016V102.716C71.6939 103.552 71.6599 103.376 72.3539 103.656C72.6339 103.76 72.9459 103.796 73.2259 104.004C73.4359 104.004 73.4699 103.83 73.4699 103.69L73.3659 102.54V99.332C73.3319 98.772 73.4359 98.216 73.5059 97.692L73.5079 97.69Z" fill="#C2BFBF"/>
</g>
<defs>
<clipPath id="clip0_610_3693">
<rect width="64" height="64" fill="white" transform="translate(40 40)"/>
</clipPath>
</defs>
</svg>
