<svg width="144" height="144" viewBox="0 0 144 144" fill="none" xmlns="http://www.w3.org/2000/svg">
<circle cx="72" cy="72" r="72" fill="#3679B0"/>
<g clip-path="url(#clip0_610_3694)">
<path d="M56.5616 48.831C56.5616 44.5237 57.743 42.1805 64.2657 41.0647C68.694 40.3059 74.3719 40.211 79.6682 41.0647C83.8514 41.7397 87.3723 44.7861 87.3723 48.831V63.0416C87.3723 67.2094 83.9539 70.6235 79.6682 70.6235H64.2657C59.0382 70.6235 54.6326 74.9811 54.6326 79.9075V86.7255H49.3366C44.8568 86.7255 42.2486 83.5675 41.1529 79.1486C39.675 73.2121 39.7377 69.675 41.1529 63.9895C42.3799 59.0296 46.3005 56.4126 50.7805 56.4126H71.9697V54.5155H56.5613L56.5616 48.831Z" fill="white"/>
<path d="M87.3727 94.3079C87.3727 98.6152 83.5491 100.797 79.6686 101.885C73.8306 103.525 69.1452 103.274 64.2661 101.885C60.1912 100.724 56.562 98.3531 56.562 94.3079V80.0973C56.562 76.0075 60.0489 72.5153 64.2661 72.5153H79.6686C84.799 72.5153 89.3017 68.1805 89.3017 63.0417V56.4133H95.077C99.5626 56.4133 101.674 59.6715 102.781 63.9902C104.322 69.9881 104.39 74.4737 102.781 79.1494C101.223 83.691 99.5567 86.7263 95.077 86.7263H71.9701V88.6233H87.3727V94.3079Z" fill="#FFE873"/>
<path d="M60.4136 47.8881C60.4136 46.3148 61.7033 45.0425 63.3015 45.0425C64.8936 45.0425 66.1895 46.3145 66.1895 47.8881C66.1895 49.4563 64.894 50.728 63.3015 50.728C61.7039 50.728 60.4136 49.456 60.4136 47.8881ZM77.7446 95.2509C77.7446 93.6827 79.0401 92.411 80.6325 92.411C82.2301 92.411 83.5205 93.683 83.5205 95.2509C83.5205 96.8242 82.2308 98.0965 80.6325 98.0965C79.0404 98.0965 77.7446 96.8245 77.7446 95.2509Z" fill="#3679B0"/>
</g>
<defs>
<clipPath id="clip0_610_3694">
<rect width="64" height="64" fill="white" transform="translate(40 40)"/>
</clipPath>
</defs>
</svg>
