<svg width="144" height="144" viewBox="0 0 144 144" fill="none" xmlns="http://www.w3.org/2000/svg">
<circle cx="72" cy="72" r="72" fill="#68BD45"/>
<g clip-path="url(#clip0_610_3687)">
<path d="M98.1999 43.3649C97.3036 45.5141 96.1559 47.5496 94.7809 49.4289C91.7793 46.4147 88.2084 44.0274 84.2759 42.4056C80.3434 40.7838 76.1277 39.9599 71.874 39.9819C67.6202 40.0039 63.4133 40.8712 59.4978 42.5336C55.5822 44.1959 52.0362 46.6201 49.0659 49.6651C46.0956 52.7101 43.7602 56.3152 42.1956 60.2708C40.631 64.2264 39.8684 68.4536 39.952 72.7066C40.0357 76.9596 40.964 81.1535 42.6829 85.0445C44.4018 88.9356 46.8772 92.446 49.9649 95.3719L51.1509 96.4189C55.6768 100.232 61.1694 102.72 67.0211 103.605C72.8728 104.491 78.8554 103.741 84.3071 101.437C89.7589 99.134 94.4672 95.3674 97.9111 90.5544C101.355 85.7413 103.4 80.0693 103.821 74.1659C104.696 65.9959 102.297 55.6559 98.2009 43.3659L98.1999 43.3649ZM54.5299 95.5579C54.1884 95.9799 53.7294 96.2911 53.211 96.4521C52.6926 96.6132 52.138 96.6168 51.6175 96.4626C51.097 96.3084 50.6339 96.0033 50.2869 95.5859C49.9398 95.1684 49.7244 94.6574 49.6679 94.1175C49.6113 93.5776 49.7162 93.033 49.9692 92.5528C50.2222 92.0725 50.612 91.678 51.0892 91.4193C51.5665 91.1606 52.1098 91.0493 52.6503 91.0994C53.1909 91.1495 53.7044 91.3588 54.1259 91.7009C54.6906 92.1591 55.0503 92.8226 55.126 93.5458C55.2018 94.269 54.9874 94.9927 54.5299 95.5579ZM98.0679 85.9479C90.1479 96.4979 73.2379 92.9379 62.3959 93.4499C62.3959 93.4499 60.4739 93.5629 58.5389 93.8799C58.5389 93.8799 59.2689 93.5699 60.2019 93.2169C67.8159 90.5669 71.4149 90.0569 76.0399 87.6769C84.7479 83.2499 93.3619 73.5549 95.1519 63.4769C91.8389 73.1719 81.7789 81.5089 72.6219 84.8949C66.3459 87.2079 55.0079 89.4609 55.0079 89.4609L54.5509 89.2159C46.8369 85.4659 46.5989 68.7589 60.6279 63.3709C66.7709 61.0049 72.6479 62.3039 79.2819 60.7209C86.3659 59.0379 94.5619 53.7309 97.8969 46.8049C101.627 57.8849 106.121 75.2269 98.0629 85.9549L98.0679 85.9479Z" fill="white"/>
</g>
<defs>
<clipPath id="clip0_610_3687">
<rect width="64" height="64" fill="white" transform="translate(40 40)"/>
</clipPath>
</defs>
</svg>
