<svg width="144" height="144" viewBox="0 0 144 144" fill="none" xmlns="http://www.w3.org/2000/svg">
<circle cx="72" cy="72" r="72" fill="#2383AE"/>
<path fill-rule="evenodd" clip-rule="evenodd" d="M56 65.6C58.133 57.067 63.467 52.8 72 52.8C84.8 52.8 86.4 62.4 92.8 64C97.067 65.067 100.8 63.467 104 59.2C101.867 67.733 96.533 72 88 72C75.2 72 73.6 62.4 67.2 60.8C62.933 59.733 59.2 61.333 56 65.6ZM40 84.8C42.133 76.267 47.467 72 56 72C68.8 72 70.4 81.6001 76.8 83.2001C81.067 84.2671 84.8 82.6671 88 78.4001C85.867 86.9331 80.533 91.2001 72 91.2001C59.2 91.2001 57.6 81.6 51.2 80C46.933 78.933 43.2 80.533 40 84.8Z" fill="white"/>
</svg>
